<svg xmlns="http://www.w3.org/2000/svg" viewBox="0 0 64 64" width="64" height="64">
  <defs>
    <linearGradient id="grad" x1="0%" y1="0%" x2="100%" y2="100%">
      <stop offset="0%" style="stop-color:#009689;stop-opacity:1" />
      <stop offset="100%" style="stop-color:#008b7e;stop-opacity:1" />
    </linearGradient>
  </defs>
  <path fill="url(#grad)" d="M58,12c-3.8,0-11.8,2-18,6c0,0-4.8-3.8-9-3.8s-9,3.8-9,3.8C15.8,14,7.8,12,4,12C1.8,12,0,13.8,0,16v32
	c0,2.2,1.8,4,4,4c3.8,0,11.8,2,18,6c4.2,0,9-3.8,9-3.8s4.8,3.8,9,3.8c6.2-4,14.2-6,18-6c2.2,0,4-1.8,4-4V16C62,13.8,60.2,12,58,12z" />
  <path fill="#red" d="M47.5,26.5c-2.1-2.1-5.6-2.1-7.7,0l-2.5,2.5c-0.5,0.5-0.5,1.4,0,1.9c0.5,0.5,1.4,0.5,1.9,0l2.5-2.5
	c1.1-1.1,2.8-1.1,3.9,0s1.1,2.8,0,3.9l-4.9,4.9c-1.1,1.1-2.8,1.1-3.9,0c-0.2-0.2-0.3-0.4-0.4-0.6c-0.4-0.8-1.2-1.2-2-1.1
	c-1,0.1-1.7,1-1.6,2c0.1,0.5,0.3,0.9,0.7,1.2c1.6,1.6,4.1,1.6,5.7,0l4.9-4.9C49.6,32.2,49.6,28.6,47.5,26.5z M41.1,30.1
	c-0.3-0.3-0.8-0.3-1.1,0l-3.1,3.1c-0.3,0.3-0.3,0.8,0,1.1c0.3,0.3,0.8,0.3,1.1,0l3.1-3.1C41.4,30.9,41.4,30.4,41.1,30.1z M37.2,34
	l-4.9,4.9c-1.1,1.1-2.8,1.1-3.9,0s-1.1-2.8,0-3.9l2.5-2.5c0.5-0.5,0.5-1.4,0-1.9c-0.5-0.5-1.4-0.5-1.9,0l-2.5,2.5
	c-2.1,2.1-2.1,5.6,0,7.7c1.1,1.1,2.4,1.6,3.9,1.6c1.4,0,2.8-0.5,3.9-1.6l4.9-4.9c1.1-1.1,1.6-2.4,1.6-3.9
	C40.6,34.9,38.7,35.6,37.2,34z"/>
</svg>
